<?xml version="1.0" encoding="UTF-8"?>
<svg fill="#F8C128" width="1200pt" height="1200pt" version="1.1" viewBox="0 0 1200 1200" xmlns="http://www.w3.org/2000/svg">
 <path d="m1046 808.36-98.203-27.891 13.828-399.38c17.344-511.41-739.69-506.02-723.52 0l13.828 399.38-98.438 28.125c-22.266 6.5625-37.031 26.484-37.031 49.688v323.44c0 10.312 8.4375 18.75 18.75 18.75h929.53c10.312 0 18.75-8.4375 18.75-18.75v-323.44c0-23.438-15-43.359-37.5-49.922zm-141.33 176.72h-142.73c-24.609 0-24.844-37.5 0-37.5h142.73c24.609 0 24.609 37.5 0 37.5zm-495.23-570.23c0-28.594-2.3438-57.188-3.5156-85.781 68.203-94.922 141.33-71.25 218.67-46.406 55.547 17.812 117.19 37.5 170.62 2.5781 0 43.125-5.1562 86.484-5.1562 129.61 0 108.98-71.719 200.86-185.16 200.86-116.72 0-195.47-78.75-195.47-200.86zm78.75 331.41c25.312-36.328 37.031-71.953 34.688-106.17 48.75 16.406 105.23 18.047 154.22 1.4062-1.875 33.984 9.8438 68.906 34.922 105-50.625 83.203-173.44 83.203-223.83-0.23438z"/>
</svg>
