<?xml version="1.0" encoding="utf-8" ?>
<svg baseProfile="full" height="1536" version="1.1" width="1024" xmlns="http://www.w3.org/2000/svg" xmlns:ev="http://www.w3.org/2001/xml-events" xmlns:xlink="http://www.w3.org/1999/xlink"><defs /><polygon fill="#3399ff" points="822,868 821,869 815,869 814,870 811,870 810,871 807,871 806,872 804,872 803,873 801,873 800,874 799,874 798,875 796,875 795,876 794,876 793,877 792,877 791,878 790,878 788,880 787,880 786,881 785,881 783,883 782,883 780,885 779,885 774,890 773,890 770,893 770,894 766,898 766,899 764,901 764,902 762,904 762,905 761,906 761,907 760,908 760,909 759,910 759,912 758,913 758,916 757,917 757,921 756,922 756,938 757,939 757,942 758,943 758,946 759,947 759,949 760,950 760,952 761,953 761,954 762,955 762,956 763,957 763,958 765,960 765,961 769,965 769,966 773,970 774,970 777,973 778,973 780,975 781,975 783,977 784,977 785,978 787,978 788,979 790,979 791,980 793,980 794,981 799,981 800,982 812,982 813,981 819,981 820,980 824,980 825,979 828,979 829,978 832,978 833,977 835,977 836,976 837,976 838,975 839,975 840,974 842,974 843,973 844,973 845,972 846,972 848,970 849,970 850,969 851,969 854,966 855,966 857,964 858,964 863,959 864,959 867,956 867,955 872,950 872,949 874,947 874,946 876,944 876,943 877,942 877,940 878,939 878,938 879,937 879,936 880,935 880,933 881,932 881,930 882,929 882,925 883,924 883,908 882,907 882,903 881,902 881,899 880,898 880,897 879,896 879,895 878,894 878,893 877,892 877,891 876,890 876,889 873,886 873,885 868,880 867,880 864,877 863,877 862,876 861,876 859,874 857,874 856,873 855,873 854,872 852,872 851,871 849,871 848,870 845,870 844,869 839,869 838,868" stroke="#000000" stroke-width="2" /><polygon fill="#3399ff" points="752,832 752,834 753,835 753,856 754,857 754,879 754,878 764,868 765,868 768,865 769,865 772,862 773,862 775,860 776,860 777,859 778,859 779,858 780,858 781,857 780,857 779,856 778,856 777,855 776,855 774,853 773,853 771,851 770,851 767,848 766,848 755,837 755,836 752,833" stroke="#000000" stroke-width="2" /><polygon fill="#3399ff" points="838,709 837,710 831,710 830,711 827,711 826,712 824,712 823,713 821,713 820,714 818,714 817,715 815,715 814,716 813,716 812,717 810,717 809,718 808,718 807,719 806,719 805,720 804,720 803,721 802,721 800,723 799,723 798,724 797,724 795,726 794,726 792,728 791,728 789,730 788,730 784,734 783,734 770,747 770,748 768,750 768,751 766,753 766,754 764,756 764,757 763,758 763,759 762,760 762,761 761,762 761,763 760,764 760,767 759,768 759,771 758,772 758,792 759,793 759,798 760,799 760,802 761,803 761,805 762,806 762,807 763,808 763,810 765,812 765,813 766,814 766,815 768,817 768,818 771,821 771,822 780,831 781,831 784,834 785,834 787,836 788,836 789,837 790,837 791,838 792,838 793,839 795,839 796,840 798,840 799,841 801,841 802,842 806,842 807,843 825,843 826,842 832,842 833,841 838,841 839,840 842,840 843,839 845,839 846,838 848,838 849,837 850,837 851,836 853,836 854,835 855,835 856,834 857,834 858,833 859,833 860,832 861,832 862,831 863,831 864,830 865,830 866,829 867,829 869,827 870,827 872,825 873,825 877,821 878,821 889,810 889,809 891,807 891,806 893,804 893,803 895,801 895,800 896,799 896,798 897,797 897,795 898,794 898,793 899,792 899,790 900,789 900,786 901,785 901,780 902,779 902,763 901,762 901,757 900,756 900,753 899,752 899,749 898,748 898,746 897,745 897,744 896,743 896,741 895,740 895,739 893,737 893,736 892,735 892,734 890,732 890,731 887,728 887,727 880,720 879,720 877,718 876,718 875,717 874,717 872,715 871,715 870,714 868,714 867,713 866,713 865,712 863,712 862,711 859,711 858,710 853,710 852,709" stroke="#000000" stroke-width="2" /><polygon fill="#3399ff" points="748,587 745,590 744,590 742,592 741,592 739,594 738,594 735,597 734,597 732,599 731,599 729,601 728,601 726,603 725,603 722,606 721,606 719,608 718,608 716,610 715,610 712,613 711,613 708,616 707,616 704,619 704,620 705,621 705,622 706,623 706,624 707,625 707,626 708,627 708,629 709,630 709,631 710,632 710,634 711,635 711,636 712,637 712,639 713,640 713,642 714,643 714,645 715,646 715,648 716,649 716,650 717,651 717,653 718,654 718,656 719,657 719,659 720,660 720,663 721,664 721,666 722,667 722,669 723,670 723,672 724,673 724,676 725,677 725,679 726,680 726,682 727,683 727,686 728,687 728,690 729,691 729,694 730,695 730,698 731,699 731,701 732,702 732,705 733,706 733,709 734,710 734,713 735,714 735,718 736,719 736,722 737,723 737,726 738,727 738,731 739,732 739,736 740,737 740,741 741,742 741,746 742,747 742,748 742,747 743,746 743,745 746,742 746,741 749,738 749,737 753,733 753,732 770,715 771,715 776,710 777,710 780,707 781,707 783,705 784,705 786,703 787,703 789,701 790,701 791,700 792,700 793,699 794,699 796,697 797,697 798,696 799,696 800,695 802,695 802,694 799,694 798,693 796,693 795,692 794,692 793,691 791,691 790,690 789,690 788,689 787,689 785,687 784,687 783,686 782,686 780,684 779,684 777,682 776,682 771,677 770,677 765,672 765,671 759,665 759,664 756,661 756,660 755,659 755,658 753,656 753,655 752,654 752,653 751,652 751,651 750,650 750,649 749,648 749,646 748,645 748,644 747,643 747,641 746,640 746,637 745,636 745,634 744,633 744,628 743,627 743,604 744,603 744,599 745,598 745,596 746,595 746,593 747,592 747,590 748,589 748,588 749,587" stroke="#000000" stroke-width="2" /><polygon fill="#3399ff" points="836,549 835,550 831,550 830,551 826,551 825,552 822,552 821,553 819,553 818,554 816,554 815,555 813,555 812,556 811,556 810,557 808,557 807,558 806,558 805,559 804,559 803,560 802,560 801,561 800,561 798,563 797,563 795,565 794,565 792,567 791,567 788,570 787,570 776,581 776,582 774,584 774,585 772,587 772,588 771,589 771,590 770,591 770,592 769,593 769,595 768,596 768,599 767,600 767,604 766,605 766,620 767,621 767,627 768,628 768,632 769,633 769,635 770,636 770,638 771,639 771,640 772,641 772,642 773,643 773,644 774,645 774,646 775,647 775,648 777,650 777,651 780,654 780,655 787,662 788,662 791,665 792,665 794,667 795,667 796,668 797,668 798,669 799,669 800,670 801,670 802,671 803,671 804,672 806,672 807,673 810,673 811,674 814,674 815,675 824,675 825,676 832,676 833,675 842,675 843,674 848,674 849,673 852,673 853,672 855,672 856,671 859,671 860,670 861,670 862,669 864,669 865,668 866,668 867,667 868,667 869,666 870,666 871,665 872,665 873,664 874,664 876,662 877,662 879,660 880,660 883,657 884,657 893,648 893,647 896,644 896,643 897,642 897,641 898,640 898,639 899,638 899,637 900,636 900,635 901,634 901,633 902,632 902,630 903,629 903,626 904,625 904,621 905,620 905,602 904,601 904,597 903,596 903,593 902,592 902,590 901,589 901,587 900,586 900,584 899,583 899,582 898,581 898,580 896,578 896,577 895,576 895,575 892,572 892,571 881,560 880,560 878,558 877,558 875,556 874,556 873,555 872,555 871,554 869,554 868,553 867,553 866,552 863,552 862,551 859,551 858,550 854,550 853,549" stroke="#000000" stroke-width="2" /><polygon fill="#3399ff" points="375,317 374,318 369,318 368,319 366,319 365,320 363,320 362,321 361,321 360,322 359,322 358,323 357,323 355,325 354,325 348,331 348,332 346,334 346,335 345,336 345,337 343,339 343,340 342,341 342,343 341,344 341,346 340,347 340,349 339,350 339,353 338,354 338,357 337,358 337,364 336,365 336,373 335,374 335,380 334,381 334,387 333,388 333,393 332,394 332,397 331,398 331,402 330,403 330,405 329,406 329,409 328,410 328,412 327,413 327,416 326,417 326,419 325,420 325,422 324,423 324,424 323,425 323,427 322,428 322,429 321,430 321,432 320,433 320,434 319,435 319,436 318,437 318,439 317,440 317,441 316,442 316,443 315,444 315,446 314,447 314,448 313,449 313,450 312,451 312,452 311,453 311,454 309,456 309,457 308,458 308,459 307,460 307,461 306,462 306,463 305,464 305,465 304,466 304,467 302,469 302,470 301,471 301,472 300,473 300,474 298,476 298,477 297,478 297,479 295,481 295,482 294,483 294,484 292,486 292,487 291,488 291,489 289,491 289,492 287,494 287,495 285,497 285,498 283,500 283,501 281,503 281,504 279,506 279,507 277,509 277,510 276,511 276,512 274,514 274,515 272,517 272,518 270,520 270,521 268,523 268,524 266,526 266,527 264,529 264,530 262,532 262,533 260,535 260,536 258,538 258,539 256,541 256,542 254,544 254,545 252,547 252,548 250,550 250,551 248,553 248,554 246,556 246,557 244,559 244,560 242,562 242,563 241,564 241,565 239,567 239,568 237,570 237,571 236,572 236,573 234,575 234,576 233,577 233,578 231,580 231,581 230,582 230,583 228,585 228,586 227,587 227,588 226,589 226,590 224,592 224,593 223,594 223,595 222,596 222,597 221,598 221,599 220,600 220,601 219,602 219,603 218,604 218,605 216,607 216,608 215,609 215,610 214,611 214,612 213,613 213,614 212,615 212,616 211,617 211,619 210,620 210,621 209,622 209,623 208,624 208,625 207,626 207,627 206,628 206,629 205,630 205,632 204,633 204,634 203,635 203,636 202,637 202,639 201,640 201,641 200,642 200,644 199,645 199,647 198,648 198,649 197,650 197,652 196,653 196,655 195,656 195,658 194,659 194,661 193,662 193,664 192,665 192,667 191,668 191,671 190,672 190,674 189,675 189,677 188,678 188,681 187,682 187,685 186,686 186,689 185,690 185,694 184,695 184,699 183,700 183,704 182,705 182,709 181,710 181,715 180,716 180,722 179,723 179,730 178,731 178,740 177,741 177,755 176,756 176,794 177,795 177,809 178,810 178,821 179,822 179,837 180,838 180,871 179,872 179,878 178,879 178,882 177,883 177,886 176,887 176,889 175,890 175,892 174,893 174,895 173,896 173,897 172,898 172,900 171,901 171,902 170,903 170,904 169,905 169,906 168,907 168,908 166,910 166,911 164,913 164,914 162,916 162,917 159,920 159,921 156,924 156,925 153,928 153,929 149,933 149,934 143,940 143,941 137,947 137,948 126,959 126,960 113,973 113,974 98,989 98,990 81,1007 81,1008 63,1026 63,1027 43,1047 43,1048 23,1068 23,1069 7,1085 7,1086 0,1093 0,1535 142,1535 144,1533 144,1532 147,1529 147,1528 150,1525 150,1524 153,1521 153,1520 156,1517 156,1516 159,1513 159,1512 162,1509 162,1508 165,1505 165,1504 169,1500 169,1499 172,1496 172,1495 175,1492 175,1491 179,1487 179,1486 182,1483 182,1482 185,1479 185,1478 188,1475 188,1474 191,1471 191,1470 194,1467 194,1466 197,1463 197,1462 201,1458 201,1457 204,1454 204,1453 207,1450 207,1449 210,1446 210,1445 213,1442 213,1441 217,1437 217,1436 220,1433 220,1432 223,1429 223,1428 225,1426 225,1425 229,1421 229,1420 232,1417 232,1416 235,1413 235,1412 238,1409 238,1408 241,1405 241,1404 243,1402 243,1401 246,1398 246,1397 249,1394 249,1393 252,1390 252,1389 255,1386 255,1385 259,1381 259,1380 261,1378 261,1377 264,1374 264,1373 267,1370 267,1369 270,1366 270,1365 273,1362 273,1361 276,1358 276,1357 279,1354 279,1353 282,1350 282,1349 284,1347 284,1346 287,1343 287,1342 290,1339 290,1338 293,1335 293,1334 296,1331 296,1330 299,1327 299,1326 302,1323 302,1322 305,1319 305,1318 308,1315 308,1314 311,1311 311,1310 314,1307 314,1306 316,1304 316,1303 319,1300 319,1299 323,1295 323,1294 325,1292 325,1291 328,1288 328,1287 331,1284 331,1283 334,1280 334,1279 337,1276 337,1275 340,1272 340,1271 343,1268 343,1267 346,1264 346,1263 348,1261 348,1260 351,1257 351,1256 354,1253 354,1252 357,1249 357,1248 360,1245 360,1244 363,1241 363,1240 366,1237 366,1236 369,1233 369,1232 371,1230 371,1229 374,1226 374,1225 377,1222 377,1221 380,1218 380,1217 383,1214 383,1213 386,1210 386,1209 389,1206 389,1205 392,1202 392,1201 396,1197 396,1196 400,1192 400,1191 415,1176 416,1176 419,1173 420,1173 422,1171 423,1171 425,1169 426,1169 428,1167 429,1167 430,1166 431,1166 432,1165 433,1165 434,1164 435,1164 436,1163 437,1163 438,1162 440,1162 441,1161 443,1161 444,1160 445,1160 446,1159 449,1159 450,1158 453,1158 454,1157 458,1157 459,1156 466,1156 467,1155 479,1155 480,1154 492,1154 493,1153 502,1153 503,1152 510,1152 511,1151 517,1151 518,1150 523,1150 524,1149 529,1149 530,1148 534,1148 535,1147 538,1147 539,1146 543,1146 544,1145 547,1145 548,1144 551,1144 552,1143 555,1143 556,1142 559,1142 560,1141 562,1141 563,1140 566,1140 567,1139 569,1139 570,1138 572,1138 573,1137 575,1137 576,1136 578,1136 579,1135 581,1135 582,1134 584,1134 585,1133 587,1133 588,1132 590,1132 591,1131 592,1131 593,1130 595,1130 596,1129 598,1129 599,1128 600,1128 601,1127 603,1127 604,1126 605,1126 606,1125 608,1125 609,1124 610,1124 611,1123 612,1123 613,1122 615,1122 616,1121 617,1121 618,1120 619,1120 620,1119 621,1119 622,1118 624,1118 625,1117 626,1117 627,1116 628,1116 629,1115 630,1115 631,1114 632,1114 633,1113 634,1113 635,1112 636,1112 637,1111 638,1111 639,1110 640,1110 641,1109 642,1109 643,1108 644,1108 645,1107 646,1107 647,1106 648,1106 649,1105 650,1105 651,1104 652,1104 653,1103 654,1103 655,1102 656,1102 657,1101 658,1101 660,1099 661,1099 662,1098 663,1098 664,1097 665,1097 666,1096 667,1096 669,1094 670,1094 671,1093 672,1093 673,1092 674,1092 676,1090 677,1090 678,1089 679,1089 681,1087 682,1087 683,1086 684,1086 686,1084 687,1084 688,1083 689,1083 691,1081 692,1081 694,1079 695,1079 697,1077 698,1077 700,1075 701,1075 703,1073 704,1073 706,1071 707,1071 709,1069 710,1069 713,1066 714,1066 716,1064 717,1064 720,1061 721,1061 724,1058 725,1058 728,1055 729,1055 732,1052 733,1052 737,1048 738,1048 742,1044 743,1044 747,1040 748,1040 755,1033 756,1033 763,1026 764,1026 787,1003 786,1003 785,1002 782,1002 781,1001 780,1001 779,1000 777,1000 776,999 775,999 774,998 773,998 772,997 771,997 769,995 768,995 766,993 765,993 763,991 762,991 749,978 749,977 747,975 747,974 745,972 745,971 744,970 744,969 742,967 742,966 741,965 741,964 740,963 740,961 739,960 739,959 738,958 738,956 737,955 737,953 736,952 736,949 735,948 735,943 734,942 734,918 735,917 735,909 736,908 736,889 737,888 737,855 736,854 736,834 735,833 735,820 734,819 734,810 733,809 733,800 732,799 732,792 731,791 731,784 730,783 730,777 729,776 729,770 728,769 728,764 727,763 727,758 726,757 726,752 725,751 725,746 724,745 724,741 723,740 723,735 722,734 722,731 721,730 721,726 720,725 720,722 719,721 719,717 718,716 718,713 717,712 717,709 716,708 716,705 715,704 715,701 714,700 714,697 713,696 713,694 712,693 712,690 711,689 711,686 710,685 710,683 709,682 709,680 708,679 708,676 707,675 707,673 706,672 706,670 705,669 705,667 704,666 704,664 703,663 703,661 702,660 702,658 701,657 701,655 700,654 700,652 699,651 699,649 698,648 698,647 697,646 697,644 696,643 696,642 695,641 695,639 694,638 694,637 693,636 693,634 692,633 692,632 691,631 691,629 690,628 690,627 689,626 689,625 688,624 688,622 687,621 687,620 686,619 686,618 685,617 685,616 684,615 684,614 683,613 683,611 682,610 682,609 681,608 681,607 680,606 680,605 679,604 679,603 678,602 678,601 677,600 677,599 676,598 676,597 675,596 675,595 674,594 674,593 673,592 673,591 671,589 671,588 670,587 670,586 669,585 669,584 668,583 668,582 666,580 666,579 665,578 665,577 664,576 664,575 662,573 662,572 660,570 660,569 658,567 658,566 657,565 657,564 655,562 655,561 652,558 652,557 649,554 649,553 646,550 646,549 644,547 644,546 643,545 643,539 647,535 650,535 651,536 652,536 659,543 659,544 662,547 662,548 664,550 664,551 667,554 667,555 669,557 669,558 670,559 670,560 672,562 672,563 674,565 674,566 676,568 676,569 678,571 678,572 679,573 679,574 681,576 681,577 683,579 683,580 684,581 684,582 685,583 685,584 687,586 687,587 688,588 688,589 689,590 689,591 690,592 690,593 692,595 692,596 693,596 694,595 695,595 699,591 700,591 703,588 704,588 707,585 708,585 711,582 712,582 714,580 715,580 718,577 719,577 721,575 722,575 724,573 725,573 727,571 728,571 731,568 732,568 734,566 735,566 737,564 738,564 740,562 741,562 743,560 744,560 746,558 747,558 749,556 750,556 752,554 753,554 755,552 756,552 757,551 758,551 760,549 761,549 763,547 764,547 765,546 766,546 768,544 769,544 771,542 772,542 773,541 774,541 775,540 776,540 778,538 779,538 780,537 781,537 782,536 783,536 785,534 786,534 787,533 788,533 789,532 790,532 791,531 792,531 793,530 794,530 796,528 797,528 798,527 799,527 800,526 801,526 803,524 804,524 805,523 806,523 807,522 808,522 810,520 811,520 812,519 813,519 815,517 816,517 817,516 818,516 820,514 821,514 823,512 824,512 825,511 826,511 828,509 829,509 831,507 832,507 834,505 835,505 837,503 838,503 841,500 842,500 846,496 847,496 859,484 859,483 861,481 861,480 863,478 863,477 865,475 865,474 866,473 866,472 867,471 867,469 868,468 868,466 869,465 869,463 870,462 870,458 871,457 871,437 870,436 870,432 869,431 869,428 868,427 868,426 867,425 867,423 866,422 866,421 864,419 864,418 863,417 863,416 856,409 855,409 853,407 852,407 851,406 850,406 849,405 848,405 847,404 845,404 844,403 841,403 840,402 818,402 817,403 812,403 811,404 807,404 806,405 803,405 802,406 799,406 798,407 796,407 795,408 792,408 791,409 790,409 789,410 787,410 786,411 784,411 783,412 781,412 780,413 778,413 777,414 776,414 775,415 773,415 772,416 771,416 770,417 768,417 767,418 766,418 765,419 764,419 763,420 761,420 760,421 759,421 758,422 757,422 756,423 755,423 754,424 753,424 752,425 751,425 750,426 748,426 747,427 746,427 745,428 744,428 743,429 742,429 741,430 740,430 739,431 738,431 737,432 736,432 735,433 734,433 733,434 732,434 731,435 730,435 729,436 728,436 727,437 726,437 725,438 724,438 723,439 722,439 721,440 720,440 719,441 718,441 717,442 716,442 714,444 713,444 712,445 711,445 710,446 709,446 708,447 707,447 706,448 705,448 704,449 703,449 702,450 701,450 700,451 699,451 697,453 696,453 695,454 694,454 693,455 692,455 691,456 690,456 689,457 688,457 686,459 685,459 684,460 683,460 682,461 681,461 680,462 679,462 677,464 676,464 675,465 674,465 673,466 672,466 670,468 669,468 668,469 667,469 666,470 665,470 663,472 662,472 661,473 660,473 658,475 657,475 656,476 655,476 654,477 653,477 651,479 650,479 648,481 647,481 646,482 645,482 644,483 643,483 641,485 640,485 639,486 638,486 637,487 636,487 634,489 633,489 632,490 631,490 629,492 628,492 627,493 626,493 625,494 624,494 622,496 621,496 620,497 619,497 617,499 616,499 615,500 614,500 613,501 612,501 610,503 609,503 608,504 607,504 605,506 604,506 603,507 602,507 600,509 599,509 598,510 597,510 595,512 594,512 593,513 592,513 590,515 589,515 588,516 587,516 585,518 584,518 583,519 582,519 580,521 579,521 578,522 577,522 575,524 574,524 573,525 572,525 570,527 569,527 568,528 567,528 565,530 564,530 563,531 562,531 560,533 559,533 558,534 557,534 556,535 555,535 553,537 552,537 550,539 549,539 548,540 547,540 545,542 544,542 543,543 542,543 541,544 540,544 538,546 537,546 535,548 534,548 533,549 532,549 530,551 529,551 528,552 527,552 525,554 524,554 523,555 522,555 520,557 519,557 518,558 517,558 515,560 514,560 513,561 512,561 510,563 509,563 507,565 506,565 505,566 504,566 502,568 501,568 500,569 499,569 497,571 496,571 494,573 493,573 492,574 491,574 489,576 488,576 487,577 486,577 485,578 484,578 482,580 481,580 479,582 478,582 477,583 476,583 474,585 473,585 472,586 471,586 469,588 468,588 466,590 465,590 464,591 463,591 461,593 460,593 459,594 458,594 456,596 455,596 454,597 453,597 451,599 450,599 449,600 448,600 446,602 445,602 443,604 442,604 441,605 440,605 438,607 437,607 436,608 435,608 433,610 432,610 431,611 430,611 429,612 428,612 426,614 425,614 423,616 422,616 420,618 419,618 418,619 417,619 415,621 414,621 413,622 412,622 410,624 409,624 408,625 407,625 405,627 404,627 403,628 402,628 401,629 401,634 400,635 400,658 401,659 401,670 400,671 400,676 399,677 399,679 398,680 398,681 397,682 397,683 393,687 388,687 383,682 383,680 382,679 382,678 381,677 381,675 380,674 380,671 379,670 379,666 378,665 378,658 377,657 377,618 378,617 378,611 379,610 379,606 380,605 380,601 381,600 381,598 382,597 382,594 383,593 383,591 384,590 384,588 385,587 385,585 386,584 386,583 387,582 387,580 388,579 388,577 389,576 389,575 390,574 390,572 391,571 391,570 392,569 392,568 393,567 393,565 394,564 394,563 395,562 395,560 396,559 396,558 397,557 397,556 398,555 398,554 399,553 399,551 400,550 400,549 401,548 401,547 402,546 402,545 403,544 403,543 404,542 404,541 405,540 405,538 406,537 406,536 407,535 407,534 408,533 408,532 409,531 409,530 410,529 410,528 411,527 411,525 412,524 412,523 413,522 413,521 414,520 414,519 415,518 415,516 416,515 416,514 417,513 417,512 418,511 418,509 419,508 419,507 420,506 420,504 421,503 421,501 422,500 422,499 423,498 423,496 424,495 424,493 425,492 425,490 426,489 426,487 427,486 427,484 428,483 428,481 429,480 429,477 430,476 430,473 431,472 431,469 432,468 432,464 433,463 433,459 434,458 434,453 435,452 435,447 436,446 436,438 437,437 437,423 438,422 438,405 437,404 437,388 436,387 436,381 435,380 435,376 434,375 434,371 433,370 433,367 432,366 432,363 431,362 431,360 430,359 430,358 429,357 429,355 428,354 428,353 427,352 427,351 426,350 426,349 425,348 425,347 424,346 424,345 423,344 423,343 421,341 421,340 419,338 419,337 408,326 407,326 405,324 404,324 402,322 401,322 400,321 399,321 398,320 396,320 395,319 393,319 392,318 387,318 386,317" stroke="#000000" stroke-width="2" /></svg>